<?xml version="1.0" encoding="UTF-8" standalone="no"?>
<!DOCTYPE svg PUBLIC "-//W3C//DTD SVG 1.1//EN" "http://www.w3.org/Graphics/SVG/1.1/DTD/svg11.dtd">
<svg width="100%" height="100%" viewBox="0 0 1024 1024" version="1.1" xmlns="http://www.w3.org/2000/svg" xmlns:xlink="http://www.w3.org/1999/xlink" xml:space="preserve" xmlns:serif="http://www.serif.com/" style="fill-rule:evenodd;clip-rule:evenodd;stroke-linejoin:round;stroke-miterlimit:2;">
    <g id="Text">
        <g transform="matrix(1,0,0,1,124.177,-388.836)">
            <g transform="matrix(450,0,0,450,72.5766,717.721)">
                <path d="M0.302,-0.025C0.326,-0.025 0.342,-0.043 0.342,-0.067L0.342,-0.238L0.503,-0.238C0.527,-0.238 0.545,-0.254 0.545,-0.278C0.545,-0.302 0.527,-0.317 0.503,-0.317L0.342,-0.317L0.342,-0.489C0.342,-0.513 0.326,-0.531 0.302,-0.531C0.278,-0.531 0.263,-0.513 0.263,-0.489L0.263,-0.317L0.101,-0.317C0.077,-0.317 0.059,-0.302 0.059,-0.278C0.059,-0.254 0.077,-0.238 0.101,-0.238L0.263,-0.238L0.263,-0.067C0.263,-0.043 0.278,-0.025 0.302,-0.025Z" style="fill:rgb(0,0,181);fill-rule:nonzero;"/>
            </g>
        </g>
        <g transform="matrix(1,0,0,1,240.093,-341.16)">
            <g transform="matrix(450,0,0,450,389.833,673.45)">
                <path d="M0.089,-0.246L0.34,-0.246C0.364,-0.246 0.382,-0.262 0.382,-0.286C0.382,-0.31 0.364,-0.325 0.34,-0.325L0.089,-0.325C0.065,-0.325 0.047,-0.31 0.047,-0.286C0.047,-0.262 0.065,-0.246 0.089,-0.246Z" style="fill:rgb(0,0,181);fill-rule:nonzero;"/>
            </g>
        </g>
        <g transform="matrix(1,0,0,1,-279.258,-99.0215)">
            <g transform="matrix(400,0,0,400,728.286,630.969)">
                <path d="M0.041,0.169C0.058,0.169 0.07,0.159 0.075,0.141L0.312,-0.668C0.313,-0.674 0.313,-0.677 0.313,-0.681C0.313,-0.7 0.3,-0.713 0.28,-0.713C0.26,-0.713 0.249,-0.703 0.243,-0.683L0.008,0.122C0.007,0.125 0.006,0.132 0.006,0.138C0.006,0.157 0.021,0.169 0.041,0.169Z" style="fill:rgb(0,0,181);fill-rule:nonzero;"/>
            </g>
        </g>
        <g transform="matrix(1,0,0,1,-242.764,-98.9084)">
            <g transform="matrix(450,0,0,450,280.841,774.485)">
                <path d="M0.201,-0.37C0.22,-0.37 0.231,-0.382 0.231,-0.402L0.227,-0.493L0.31,-0.438C0.315,-0.435 0.322,-0.433 0.329,-0.433C0.344,-0.433 0.359,-0.445 0.359,-0.464C0.359,-0.477 0.353,-0.485 0.341,-0.492L0.253,-0.539L0.341,-0.586C0.353,-0.593 0.359,-0.602 0.359,-0.614C0.359,-0.633 0.344,-0.645 0.329,-0.645C0.322,-0.645 0.315,-0.643 0.31,-0.64L0.227,-0.586L0.231,-0.681C0.231,-0.702 0.22,-0.713 0.201,-0.713C0.181,-0.713 0.169,-0.701 0.169,-0.681L0.173,-0.586L0.089,-0.64C0.084,-0.643 0.078,-0.645 0.07,-0.645C0.055,-0.645 0.041,-0.633 0.041,-0.614C0.041,-0.602 0.046,-0.593 0.059,-0.586L0.146,-0.539L0.059,-0.492C0.046,-0.485 0.041,-0.477 0.041,-0.464C0.041,-0.445 0.055,-0.433 0.07,-0.433C0.078,-0.433 0.084,-0.435 0.089,-0.438L0.173,-0.493L0.169,-0.402C0.169,-0.383 0.181,-0.37 0.201,-0.37Z" style="fill:rgb(0,0,181);fill-rule:nonzero;"/>
            </g>
        </g>
        <g transform="matrix(1,0,0,1,-75.5068,66.7076)">
            <g transform="matrix(350,0,0,350,280.841,774.485)">
                <path d="M0.137,0.137L0.48,0.137C0.504,0.137 0.522,0.122 0.522,0.098C0.522,0.075 0.504,0.059 0.48,0.059L0.174,0.059L0.174,0.055L0.375,-0.24C0.387,-0.258 0.392,-0.268 0.392,-0.283C0.392,-0.299 0.384,-0.313 0.368,-0.337L0.174,-0.623L0.174,-0.627L0.48,-0.627C0.504,-0.627 0.522,-0.642 0.522,-0.666C0.522,-0.689 0.504,-0.705 0.48,-0.705L0.137,-0.705C0.103,-0.705 0.078,-0.683 0.078,-0.651C0.078,-0.634 0.083,-0.621 0.095,-0.602L0.307,-0.287L0.307,-0.281L0.095,0.034C0.083,0.053 0.078,0.066 0.078,0.083C0.078,0.115 0.103,0.137 0.137,0.137Z" style="fill:rgb(0,0,181);fill-rule:nonzero;"/>
            </g>
        </g>
        <g transform="matrix(1,0,0,1,233.777,-74.8984)">
            <g transform="matrix(450,0,0,450,560.064,747.289)">
                <path d="M0.077,-0.386C0.093,-0.386 0.103,-0.393 0.111,-0.411L0.197,-0.604L0.202,-0.604L0.289,-0.411C0.297,-0.393 0.307,-0.386 0.323,-0.386C0.345,-0.386 0.359,-0.398 0.359,-0.418C0.359,-0.425 0.358,-0.432 0.354,-0.438L0.263,-0.634C0.246,-0.67 0.23,-0.683 0.2,-0.683C0.17,-0.683 0.155,-0.671 0.137,-0.634L0.046,-0.438C0.042,-0.432 0.041,-0.425 0.041,-0.418C0.041,-0.398 0.056,-0.386 0.077,-0.386Z" style="fill:rgb(0,0,181);fill-rule:nonzero;"/>
            </g>
        </g>
        <g transform="matrix(1,0,0,1,-66.5303,125.423)">
            <g transform="matrix(350,0,0,350,662.176,717.569)">
                <path d="M0.182,0.149C0.208,0.149 0.226,0.131 0.226,0.104L0.226,-0.625L0.433,-0.625L0.433,0.104C0.433,0.131 0.45,0.149 0.477,0.149C0.503,0.149 0.521,0.131 0.521,0.104L0.521,-0.625L0.583,-0.625C0.607,-0.625 0.625,-0.641 0.625,-0.665C0.625,-0.689 0.607,-0.705 0.583,-0.705L0.074,-0.705C0.05,-0.705 0.032,-0.689 0.032,-0.665C0.032,-0.641 0.05,-0.625 0.074,-0.625L0.138,-0.625L0.138,0.104C0.138,0.131 0.155,0.149 0.182,0.149Z" style="fill:rgb(0,0,181);fill-rule:nonzero;"/>
            </g>
        </g>
    </g>
</svg>
